G75*
%MOIN*%
%OFA0B0*%
%FSLAX25Y25*%
%IPPOS*%
%LPD*%
%AMOC8*
5,1,8,0,0,1.08239X$1,22.5*
%
%ADD10C,0.00800*%
%ADD11R,0.05150X0.05150*%
%ADD12C,0.07000*%
%ADD13R,0.07283X0.07283*%
%ADD14C,0.07283*%
%ADD15C,0.07400*%
%ADD16C,0.03200*%
D10*
X0044232Y0044963D02*
X0044143Y0044965D01*
X0044054Y0044971D01*
X0043965Y0044980D01*
X0043877Y0044994D01*
X0043790Y0045011D01*
X0043703Y0045033D01*
X0043617Y0045058D01*
X0043533Y0045086D01*
X0043450Y0045119D01*
X0043368Y0045155D01*
X0043288Y0045194D01*
X0043210Y0045237D01*
X0043134Y0045283D01*
X0043060Y0045333D01*
X0042988Y0045385D01*
X0042918Y0045441D01*
X0042851Y0045500D01*
X0042787Y0045562D01*
X0042725Y0045626D01*
X0042666Y0045693D01*
X0042610Y0045763D01*
X0042558Y0045835D01*
X0042508Y0045909D01*
X0042462Y0045985D01*
X0042419Y0046063D01*
X0042380Y0046143D01*
X0042344Y0046225D01*
X0042311Y0046308D01*
X0042283Y0046392D01*
X0042258Y0046478D01*
X0042236Y0046565D01*
X0042219Y0046652D01*
X0042205Y0046740D01*
X0042196Y0046829D01*
X0042190Y0046918D01*
X0042188Y0047007D01*
X0044232Y0044963D02*
X0044322Y0044965D01*
X0044411Y0044971D01*
X0044501Y0044980D01*
X0044589Y0044994D01*
X0044678Y0045011D01*
X0044765Y0045033D01*
X0044851Y0045057D01*
X0044936Y0045086D01*
X0045020Y0045118D01*
X0045102Y0045154D01*
X0045183Y0045194D01*
X0045262Y0045237D01*
X0045339Y0045283D01*
X0045414Y0045332D01*
X0045487Y0045385D01*
X0045557Y0045441D01*
X0045625Y0045500D01*
X0045690Y0045561D01*
X0045753Y0045626D01*
X0045812Y0045693D01*
X0045869Y0045762D01*
X0045923Y0045834D01*
X0045973Y0045909D01*
X0046021Y0045985D01*
X0047554Y0048796D01*
X0051388Y0047774D02*
X0051386Y0047648D01*
X0051381Y0047522D01*
X0051371Y0047396D01*
X0051358Y0047270D01*
X0051342Y0047145D01*
X0051322Y0047020D01*
X0051298Y0046896D01*
X0051270Y0046773D01*
X0051239Y0046650D01*
X0051205Y0046529D01*
X0051166Y0046409D01*
X0051125Y0046289D01*
X0051080Y0046171D01*
X0051031Y0046055D01*
X0050979Y0045940D01*
X0050924Y0045826D01*
X0050865Y0045714D01*
X0050803Y0045604D01*
X0050738Y0045496D01*
X0050670Y0045390D01*
X0050599Y0045285D01*
X0050525Y0045183D01*
X0050447Y0045083D01*
X0050367Y0044986D01*
X0050284Y0044890D01*
X0050199Y0044798D01*
X0050110Y0044707D01*
X0047554Y0048796D02*
X0047602Y0048872D01*
X0047652Y0048947D01*
X0047706Y0049019D01*
X0047763Y0049088D01*
X0047822Y0049155D01*
X0047885Y0049220D01*
X0047950Y0049281D01*
X0048018Y0049340D01*
X0048088Y0049396D01*
X0048161Y0049449D01*
X0048236Y0049498D01*
X0048313Y0049544D01*
X0048392Y0049587D01*
X0048473Y0049627D01*
X0048555Y0049663D01*
X0048639Y0049695D01*
X0048724Y0049724D01*
X0048810Y0049748D01*
X0048897Y0049770D01*
X0048986Y0049787D01*
X0049074Y0049801D01*
X0049164Y0049810D01*
X0049253Y0049816D01*
X0049343Y0049818D01*
X0049432Y0049816D01*
X0049521Y0049810D01*
X0049610Y0049801D01*
X0049698Y0049787D01*
X0049785Y0049770D01*
X0049872Y0049748D01*
X0049958Y0049723D01*
X0050042Y0049695D01*
X0050125Y0049662D01*
X0050207Y0049626D01*
X0050287Y0049587D01*
X0050365Y0049544D01*
X0050441Y0049498D01*
X0050515Y0049448D01*
X0050587Y0049396D01*
X0050657Y0049340D01*
X0050724Y0049281D01*
X0050788Y0049219D01*
X0050850Y0049155D01*
X0050909Y0049088D01*
X0050965Y0049018D01*
X0051017Y0048946D01*
X0051067Y0048872D01*
X0051113Y0048796D01*
X0051156Y0048718D01*
X0051195Y0048638D01*
X0051231Y0048556D01*
X0051264Y0048473D01*
X0051292Y0048389D01*
X0051317Y0048303D01*
X0051339Y0048216D01*
X0051356Y0048129D01*
X0051370Y0048041D01*
X0051379Y0047952D01*
X0051385Y0047863D01*
X0051387Y0047774D01*
X0051387Y0052937D02*
X0042187Y0052937D01*
X0042187Y0057026D01*
X0042187Y0060076D02*
X0042187Y0062632D01*
X0042187Y0060076D02*
X0051387Y0060076D01*
X0051387Y0057026D02*
X0051387Y0052937D01*
X0046276Y0052937D02*
X0046276Y0056003D01*
X0047299Y0060076D02*
X0047299Y0062632D01*
X0047299Y0063143D02*
X0051387Y0065187D01*
X0051387Y0067760D02*
X0042187Y0070827D01*
X0051387Y0073893D01*
X0049087Y0073127D02*
X0049087Y0068527D01*
X0047299Y0062632D02*
X0047297Y0062732D01*
X0047291Y0062833D01*
X0047281Y0062932D01*
X0047268Y0063032D01*
X0047250Y0063131D01*
X0047228Y0063229D01*
X0047203Y0063326D01*
X0047174Y0063422D01*
X0047141Y0063517D01*
X0047104Y0063610D01*
X0047064Y0063702D01*
X0047020Y0063792D01*
X0046973Y0063881D01*
X0046922Y0063968D01*
X0046868Y0064052D01*
X0046811Y0064134D01*
X0046750Y0064214D01*
X0046687Y0064292D01*
X0046620Y0064367D01*
X0046550Y0064439D01*
X0046478Y0064509D01*
X0046403Y0064576D01*
X0046325Y0064639D01*
X0046245Y0064700D01*
X0046163Y0064757D01*
X0046079Y0064811D01*
X0045992Y0064862D01*
X0045903Y0064909D01*
X0045813Y0064953D01*
X0045721Y0064993D01*
X0045628Y0065030D01*
X0045533Y0065063D01*
X0045437Y0065092D01*
X0045340Y0065117D01*
X0045242Y0065139D01*
X0045143Y0065157D01*
X0045043Y0065170D01*
X0044944Y0065180D01*
X0044843Y0065186D01*
X0044743Y0065188D01*
X0044643Y0065186D01*
X0044542Y0065180D01*
X0044443Y0065170D01*
X0044343Y0065157D01*
X0044244Y0065139D01*
X0044146Y0065117D01*
X0044049Y0065092D01*
X0043953Y0065063D01*
X0043858Y0065030D01*
X0043765Y0064993D01*
X0043673Y0064953D01*
X0043583Y0064909D01*
X0043494Y0064862D01*
X0043407Y0064811D01*
X0043323Y0064757D01*
X0043241Y0064700D01*
X0043161Y0064639D01*
X0043083Y0064576D01*
X0043008Y0064509D01*
X0042936Y0064439D01*
X0042866Y0064367D01*
X0042799Y0064292D01*
X0042736Y0064214D01*
X0042675Y0064134D01*
X0042618Y0064052D01*
X0042564Y0063968D01*
X0042513Y0063881D01*
X0042466Y0063792D01*
X0042422Y0063702D01*
X0042382Y0063610D01*
X0042345Y0063517D01*
X0042312Y0063422D01*
X0042283Y0063326D01*
X0042258Y0063229D01*
X0042236Y0063131D01*
X0042218Y0063032D01*
X0042205Y0062932D01*
X0042195Y0062833D01*
X0042189Y0062732D01*
X0042187Y0062632D01*
X0046021Y0077495D02*
X0047554Y0080306D01*
X0051388Y0079284D02*
X0051386Y0079158D01*
X0051381Y0079032D01*
X0051371Y0078906D01*
X0051358Y0078780D01*
X0051342Y0078655D01*
X0051322Y0078530D01*
X0051298Y0078406D01*
X0051270Y0078283D01*
X0051239Y0078160D01*
X0051205Y0078039D01*
X0051166Y0077919D01*
X0051125Y0077799D01*
X0051080Y0077681D01*
X0051031Y0077565D01*
X0050979Y0077450D01*
X0050924Y0077336D01*
X0050865Y0077224D01*
X0050803Y0077114D01*
X0050738Y0077006D01*
X0050670Y0076900D01*
X0050599Y0076795D01*
X0050525Y0076693D01*
X0050447Y0076593D01*
X0050367Y0076496D01*
X0050284Y0076400D01*
X0050199Y0076308D01*
X0050110Y0076217D01*
X0047554Y0080306D02*
X0047602Y0080382D01*
X0047652Y0080457D01*
X0047706Y0080529D01*
X0047763Y0080598D01*
X0047822Y0080665D01*
X0047885Y0080730D01*
X0047950Y0080791D01*
X0048018Y0080850D01*
X0048088Y0080906D01*
X0048161Y0080959D01*
X0048236Y0081008D01*
X0048313Y0081054D01*
X0048392Y0081097D01*
X0048473Y0081137D01*
X0048555Y0081173D01*
X0048639Y0081205D01*
X0048724Y0081234D01*
X0048810Y0081258D01*
X0048897Y0081280D01*
X0048986Y0081297D01*
X0049074Y0081311D01*
X0049164Y0081320D01*
X0049253Y0081326D01*
X0049343Y0081328D01*
X0049432Y0081326D01*
X0049521Y0081320D01*
X0049610Y0081311D01*
X0049698Y0081297D01*
X0049785Y0081280D01*
X0049872Y0081258D01*
X0049958Y0081233D01*
X0050042Y0081205D01*
X0050125Y0081172D01*
X0050207Y0081136D01*
X0050287Y0081097D01*
X0050365Y0081054D01*
X0050441Y0081008D01*
X0050515Y0080958D01*
X0050587Y0080906D01*
X0050657Y0080850D01*
X0050724Y0080791D01*
X0050788Y0080729D01*
X0050850Y0080665D01*
X0050909Y0080598D01*
X0050965Y0080528D01*
X0051017Y0080456D01*
X0051067Y0080382D01*
X0051113Y0080306D01*
X0051156Y0080228D01*
X0051195Y0080148D01*
X0051231Y0080066D01*
X0051264Y0079983D01*
X0051292Y0079899D01*
X0051317Y0079813D01*
X0051339Y0079726D01*
X0051356Y0079639D01*
X0051370Y0079551D01*
X0051379Y0079462D01*
X0051385Y0079373D01*
X0051387Y0079284D01*
X0051387Y0083997D02*
X0050876Y0083997D01*
X0050876Y0084508D01*
X0051387Y0084508D01*
X0051387Y0083997D01*
X0051387Y0087725D02*
X0051387Y0090281D01*
X0051388Y0090281D02*
X0051386Y0090381D01*
X0051380Y0090482D01*
X0051370Y0090581D01*
X0051357Y0090681D01*
X0051339Y0090780D01*
X0051317Y0090878D01*
X0051292Y0090975D01*
X0051263Y0091071D01*
X0051230Y0091166D01*
X0051193Y0091259D01*
X0051153Y0091351D01*
X0051109Y0091441D01*
X0051062Y0091530D01*
X0051011Y0091616D01*
X0050957Y0091701D01*
X0050900Y0091783D01*
X0050839Y0091863D01*
X0050776Y0091941D01*
X0050709Y0092016D01*
X0050639Y0092088D01*
X0050567Y0092158D01*
X0050492Y0092225D01*
X0050414Y0092288D01*
X0050334Y0092349D01*
X0050252Y0092406D01*
X0050168Y0092460D01*
X0050081Y0092511D01*
X0049992Y0092558D01*
X0049902Y0092602D01*
X0049810Y0092642D01*
X0049717Y0092679D01*
X0049622Y0092712D01*
X0049526Y0092741D01*
X0049429Y0092766D01*
X0049331Y0092788D01*
X0049232Y0092806D01*
X0049132Y0092819D01*
X0049033Y0092829D01*
X0048932Y0092835D01*
X0048832Y0092837D01*
X0048832Y0092836D02*
X0044743Y0092836D01*
X0044743Y0092837D02*
X0044643Y0092835D01*
X0044542Y0092829D01*
X0044443Y0092819D01*
X0044343Y0092806D01*
X0044244Y0092788D01*
X0044146Y0092766D01*
X0044049Y0092741D01*
X0043953Y0092712D01*
X0043858Y0092679D01*
X0043765Y0092642D01*
X0043673Y0092602D01*
X0043583Y0092558D01*
X0043494Y0092511D01*
X0043407Y0092460D01*
X0043323Y0092406D01*
X0043241Y0092349D01*
X0043161Y0092288D01*
X0043083Y0092225D01*
X0043008Y0092158D01*
X0042936Y0092088D01*
X0042866Y0092016D01*
X0042799Y0091941D01*
X0042736Y0091863D01*
X0042675Y0091783D01*
X0042618Y0091701D01*
X0042564Y0091617D01*
X0042513Y0091530D01*
X0042466Y0091441D01*
X0042422Y0091351D01*
X0042382Y0091259D01*
X0042345Y0091166D01*
X0042312Y0091071D01*
X0042283Y0090975D01*
X0042258Y0090878D01*
X0042236Y0090780D01*
X0042218Y0090681D01*
X0042205Y0090581D01*
X0042195Y0090482D01*
X0042189Y0090381D01*
X0042187Y0090281D01*
X0042187Y0087725D01*
X0051387Y0087725D01*
X0051387Y0096551D02*
X0042187Y0096551D01*
X0045765Y0098596D02*
X0051387Y0101662D01*
X0047810Y0096551D02*
X0042187Y0101662D01*
X0046021Y0077495D02*
X0045973Y0077419D01*
X0045923Y0077344D01*
X0045869Y0077272D01*
X0045812Y0077203D01*
X0045753Y0077136D01*
X0045690Y0077071D01*
X0045625Y0077010D01*
X0045557Y0076951D01*
X0045487Y0076895D01*
X0045414Y0076842D01*
X0045339Y0076793D01*
X0045262Y0076747D01*
X0045183Y0076704D01*
X0045102Y0076664D01*
X0045020Y0076628D01*
X0044936Y0076596D01*
X0044851Y0076567D01*
X0044765Y0076543D01*
X0044678Y0076521D01*
X0044589Y0076504D01*
X0044501Y0076490D01*
X0044411Y0076481D01*
X0044322Y0076475D01*
X0044232Y0076473D01*
X0044143Y0076475D01*
X0044054Y0076481D01*
X0043965Y0076490D01*
X0043877Y0076504D01*
X0043790Y0076521D01*
X0043703Y0076543D01*
X0043617Y0076568D01*
X0043533Y0076596D01*
X0043450Y0076629D01*
X0043368Y0076665D01*
X0043288Y0076704D01*
X0043210Y0076747D01*
X0043134Y0076793D01*
X0043060Y0076843D01*
X0042988Y0076895D01*
X0042918Y0076951D01*
X0042851Y0077010D01*
X0042787Y0077072D01*
X0042725Y0077136D01*
X0042666Y0077203D01*
X0042610Y0077273D01*
X0042558Y0077345D01*
X0042508Y0077419D01*
X0042462Y0077495D01*
X0042419Y0077573D01*
X0042380Y0077653D01*
X0042344Y0077735D01*
X0042311Y0077818D01*
X0042283Y0077902D01*
X0042258Y0077988D01*
X0042236Y0078075D01*
X0042219Y0078162D01*
X0042205Y0078250D01*
X0042196Y0078339D01*
X0042190Y0078428D01*
X0042188Y0078517D01*
X0042190Y0078640D01*
X0042196Y0078763D01*
X0042206Y0078886D01*
X0042220Y0079009D01*
X0042237Y0079131D01*
X0042259Y0079252D01*
X0042285Y0079373D01*
X0042314Y0079493D01*
X0042348Y0079612D01*
X0042385Y0079729D01*
X0042426Y0079845D01*
X0042470Y0079960D01*
X0042518Y0080074D01*
X0042570Y0080186D01*
X0042626Y0080296D01*
X0042685Y0080404D01*
X0042747Y0080511D01*
X0042813Y0080615D01*
X0042882Y0080717D01*
X0042955Y0080817D01*
X0042955Y0049307D02*
X0042882Y0049207D01*
X0042813Y0049105D01*
X0042747Y0049001D01*
X0042685Y0048894D01*
X0042626Y0048786D01*
X0042570Y0048676D01*
X0042518Y0048564D01*
X0042470Y0048450D01*
X0042426Y0048335D01*
X0042385Y0048219D01*
X0042348Y0048102D01*
X0042314Y0047983D01*
X0042285Y0047863D01*
X0042259Y0047742D01*
X0042237Y0047621D01*
X0042220Y0047499D01*
X0042206Y0047376D01*
X0042196Y0047253D01*
X0042190Y0047130D01*
X0042188Y0047007D01*
D11*
X0043441Y0021866D03*
X0063126Y0021866D03*
X0083598Y0137614D03*
X0022969Y0137614D03*
D12*
X0107736Y0037063D02*
X0114736Y0037063D01*
X0114736Y0017063D02*
X0107736Y0017063D01*
D13*
X0101394Y0122063D03*
D14*
X0115173Y0122063D03*
D15*
X0018717Y0006906D03*
X0028717Y0006906D03*
X0088283Y0007063D03*
X0098283Y0007063D03*
X0007795Y0131630D03*
X0007795Y0141630D03*
X0099031Y0141551D03*
X0109031Y0141551D03*
D16*
X0099031Y0141551D01*
X0083598Y0137614D02*
X0082496Y0137614D01*
X0075753Y0144357D01*
X0019482Y0144357D01*
X0016755Y0141630D01*
X0007795Y0141630D01*
X0007795Y0131630D01*
X0022969Y0137614D02*
X0022969Y0012654D01*
X0022969Y0011157D01*
X0018717Y0006906D01*
X0022969Y0012654D02*
X0028717Y0006906D01*
X0043441Y0021866D02*
X0053244Y0012063D01*
X0073283Y0012063D01*
X0083283Y0022063D01*
X0103283Y0022063D01*
X0108283Y0017063D01*
X0111236Y0017063D01*
X0098283Y0007063D02*
X0088283Y0007063D01*
X0063126Y0021866D02*
X0063087Y0026866D01*
X0063283Y0032063D01*
X0063283Y0122063D01*
X0101394Y0122063D01*
X0108283Y0112063D02*
X0078283Y0112063D01*
X0078283Y0037063D01*
X0111236Y0037063D01*
X0108283Y0112063D02*
X0115173Y0118953D01*
X0115173Y0122063D01*
M02*
