G75*
%MOIN*%
%OFA0B0*%
%FSLAX25Y25*%
%IPPOS*%
%LPD*%
%AMOC8*
5,1,8,0,0,1.08239X$1,22.5*
%
%ADD10C,0.00800*%
%ADD11R,0.05150X0.05150*%
%ADD12C,0.07000*%
%ADD13R,0.07283X0.07283*%
%ADD14C,0.07283*%
%ADD15C,0.07400*%
D10*
X0042421Y0049818D02*
X0042511Y0049816D01*
X0042600Y0049810D01*
X0042690Y0049801D01*
X0042778Y0049787D01*
X0042867Y0049770D01*
X0042954Y0049748D01*
X0043040Y0049724D01*
X0043125Y0049695D01*
X0043209Y0049663D01*
X0043291Y0049627D01*
X0043372Y0049587D01*
X0043451Y0049544D01*
X0043528Y0049498D01*
X0043603Y0049449D01*
X0043676Y0049396D01*
X0043746Y0049340D01*
X0043814Y0049281D01*
X0043879Y0049220D01*
X0043942Y0049155D01*
X0044001Y0049088D01*
X0044058Y0049019D01*
X0044112Y0048947D01*
X0044162Y0048872D01*
X0044210Y0048796D01*
X0045743Y0045985D01*
X0049576Y0047007D02*
X0049574Y0047130D01*
X0049568Y0047254D01*
X0049558Y0047376D01*
X0049544Y0047499D01*
X0049527Y0047621D01*
X0049505Y0047742D01*
X0049479Y0047863D01*
X0049450Y0047983D01*
X0049416Y0048102D01*
X0049379Y0048219D01*
X0049338Y0048335D01*
X0049294Y0048450D01*
X0049246Y0048564D01*
X0049194Y0048676D01*
X0049138Y0048786D01*
X0049079Y0048894D01*
X0049017Y0049001D01*
X0048951Y0049105D01*
X0048882Y0049207D01*
X0048809Y0049307D01*
X0045743Y0045985D02*
X0045791Y0045909D01*
X0045841Y0045834D01*
X0045895Y0045762D01*
X0045952Y0045693D01*
X0046011Y0045626D01*
X0046074Y0045561D01*
X0046139Y0045500D01*
X0046207Y0045441D01*
X0046277Y0045385D01*
X0046350Y0045332D01*
X0046425Y0045283D01*
X0046502Y0045237D01*
X0046581Y0045194D01*
X0046662Y0045154D01*
X0046744Y0045118D01*
X0046828Y0045086D01*
X0046913Y0045057D01*
X0046999Y0045033D01*
X0047086Y0045011D01*
X0047175Y0044994D01*
X0047263Y0044980D01*
X0047353Y0044971D01*
X0047442Y0044965D01*
X0047532Y0044963D01*
X0047621Y0044965D01*
X0047710Y0044971D01*
X0047799Y0044980D01*
X0047887Y0044994D01*
X0047974Y0045011D01*
X0048061Y0045033D01*
X0048147Y0045058D01*
X0048231Y0045086D01*
X0048314Y0045119D01*
X0048396Y0045155D01*
X0048476Y0045194D01*
X0048554Y0045237D01*
X0048630Y0045283D01*
X0048704Y0045333D01*
X0048776Y0045385D01*
X0048846Y0045441D01*
X0048913Y0045500D01*
X0048977Y0045562D01*
X0049039Y0045626D01*
X0049098Y0045693D01*
X0049154Y0045763D01*
X0049206Y0045835D01*
X0049256Y0045909D01*
X0049302Y0045985D01*
X0049345Y0046063D01*
X0049384Y0046143D01*
X0049420Y0046225D01*
X0049453Y0046308D01*
X0049481Y0046392D01*
X0049506Y0046478D01*
X0049528Y0046565D01*
X0049545Y0046652D01*
X0049559Y0046740D01*
X0049568Y0046829D01*
X0049574Y0046918D01*
X0049576Y0047007D01*
X0041654Y0044707D02*
X0041565Y0044797D01*
X0041480Y0044890D01*
X0041397Y0044986D01*
X0041317Y0045083D01*
X0041239Y0045183D01*
X0041165Y0045285D01*
X0041094Y0045390D01*
X0041026Y0045496D01*
X0040961Y0045604D01*
X0040899Y0045714D01*
X0040840Y0045826D01*
X0040785Y0045940D01*
X0040733Y0046055D01*
X0040684Y0046171D01*
X0040639Y0046289D01*
X0040598Y0046408D01*
X0040559Y0046529D01*
X0040525Y0046650D01*
X0040494Y0046773D01*
X0040466Y0046896D01*
X0040442Y0047020D01*
X0040422Y0047145D01*
X0040406Y0047270D01*
X0040393Y0047396D01*
X0040383Y0047522D01*
X0040378Y0047648D01*
X0040376Y0047774D01*
X0040377Y0047774D02*
X0040379Y0047863D01*
X0040385Y0047952D01*
X0040394Y0048041D01*
X0040408Y0048129D01*
X0040425Y0048216D01*
X0040447Y0048303D01*
X0040472Y0048389D01*
X0040500Y0048473D01*
X0040533Y0048556D01*
X0040569Y0048638D01*
X0040608Y0048718D01*
X0040651Y0048796D01*
X0040697Y0048872D01*
X0040747Y0048946D01*
X0040799Y0049018D01*
X0040855Y0049088D01*
X0040914Y0049155D01*
X0040976Y0049219D01*
X0041040Y0049281D01*
X0041107Y0049340D01*
X0041177Y0049396D01*
X0041249Y0049448D01*
X0041323Y0049498D01*
X0041399Y0049544D01*
X0041477Y0049587D01*
X0041557Y0049626D01*
X0041639Y0049662D01*
X0041722Y0049695D01*
X0041806Y0049723D01*
X0041892Y0049748D01*
X0041979Y0049770D01*
X0042066Y0049787D01*
X0042154Y0049801D01*
X0042243Y0049810D01*
X0042332Y0049816D01*
X0042421Y0049818D01*
X0040376Y0052937D02*
X0049576Y0052937D01*
X0049576Y0057026D01*
X0049576Y0060076D02*
X0049576Y0062632D01*
X0049577Y0062632D02*
X0049575Y0062732D01*
X0049569Y0062833D01*
X0049559Y0062932D01*
X0049546Y0063032D01*
X0049528Y0063131D01*
X0049506Y0063229D01*
X0049481Y0063326D01*
X0049452Y0063422D01*
X0049419Y0063517D01*
X0049382Y0063610D01*
X0049342Y0063702D01*
X0049298Y0063792D01*
X0049251Y0063881D01*
X0049200Y0063968D01*
X0049146Y0064052D01*
X0049089Y0064134D01*
X0049028Y0064214D01*
X0048965Y0064292D01*
X0048898Y0064367D01*
X0048828Y0064439D01*
X0048756Y0064509D01*
X0048681Y0064576D01*
X0048603Y0064639D01*
X0048523Y0064700D01*
X0048441Y0064757D01*
X0048357Y0064811D01*
X0048270Y0064862D01*
X0048181Y0064909D01*
X0048091Y0064953D01*
X0047999Y0064993D01*
X0047906Y0065030D01*
X0047811Y0065063D01*
X0047715Y0065092D01*
X0047618Y0065117D01*
X0047520Y0065139D01*
X0047421Y0065157D01*
X0047321Y0065170D01*
X0047222Y0065180D01*
X0047121Y0065186D01*
X0047021Y0065188D01*
X0046921Y0065186D01*
X0046820Y0065180D01*
X0046721Y0065170D01*
X0046621Y0065157D01*
X0046522Y0065139D01*
X0046424Y0065117D01*
X0046327Y0065092D01*
X0046231Y0065063D01*
X0046136Y0065030D01*
X0046043Y0064993D01*
X0045951Y0064953D01*
X0045861Y0064909D01*
X0045772Y0064862D01*
X0045685Y0064811D01*
X0045601Y0064757D01*
X0045519Y0064700D01*
X0045439Y0064639D01*
X0045361Y0064576D01*
X0045286Y0064509D01*
X0045214Y0064439D01*
X0045144Y0064367D01*
X0045077Y0064292D01*
X0045014Y0064214D01*
X0044953Y0064134D01*
X0044896Y0064052D01*
X0044842Y0063968D01*
X0044791Y0063881D01*
X0044744Y0063792D01*
X0044700Y0063702D01*
X0044660Y0063610D01*
X0044623Y0063517D01*
X0044590Y0063422D01*
X0044561Y0063326D01*
X0044536Y0063229D01*
X0044514Y0063131D01*
X0044496Y0063032D01*
X0044483Y0062932D01*
X0044473Y0062833D01*
X0044467Y0062732D01*
X0044465Y0062632D01*
X0044465Y0060076D01*
X0044465Y0063143D02*
X0040376Y0065187D01*
X0040376Y0067760D02*
X0049576Y0070827D01*
X0040376Y0073893D01*
X0042676Y0073127D02*
X0042676Y0068527D01*
X0040376Y0060076D02*
X0049576Y0060076D01*
X0045487Y0056003D02*
X0045487Y0052937D01*
X0040376Y0052937D02*
X0040376Y0057026D01*
X0045743Y0077495D02*
X0044210Y0080306D01*
X0040376Y0079284D02*
X0040378Y0079158D01*
X0040383Y0079032D01*
X0040393Y0078906D01*
X0040406Y0078780D01*
X0040422Y0078655D01*
X0040442Y0078530D01*
X0040466Y0078406D01*
X0040494Y0078283D01*
X0040525Y0078160D01*
X0040559Y0078039D01*
X0040598Y0077918D01*
X0040639Y0077799D01*
X0040684Y0077681D01*
X0040733Y0077565D01*
X0040785Y0077450D01*
X0040840Y0077336D01*
X0040899Y0077224D01*
X0040961Y0077114D01*
X0041026Y0077006D01*
X0041094Y0076900D01*
X0041165Y0076795D01*
X0041239Y0076693D01*
X0041317Y0076593D01*
X0041397Y0076496D01*
X0041480Y0076400D01*
X0041565Y0076307D01*
X0041654Y0076217D01*
X0044210Y0080306D02*
X0044162Y0080382D01*
X0044112Y0080457D01*
X0044058Y0080529D01*
X0044001Y0080598D01*
X0043942Y0080665D01*
X0043879Y0080730D01*
X0043814Y0080791D01*
X0043746Y0080850D01*
X0043676Y0080906D01*
X0043603Y0080959D01*
X0043528Y0081008D01*
X0043451Y0081054D01*
X0043372Y0081097D01*
X0043291Y0081137D01*
X0043209Y0081173D01*
X0043125Y0081205D01*
X0043040Y0081234D01*
X0042954Y0081258D01*
X0042867Y0081280D01*
X0042778Y0081297D01*
X0042690Y0081311D01*
X0042600Y0081320D01*
X0042511Y0081326D01*
X0042421Y0081328D01*
X0042332Y0081326D01*
X0042243Y0081320D01*
X0042154Y0081311D01*
X0042066Y0081297D01*
X0041979Y0081280D01*
X0041892Y0081258D01*
X0041806Y0081233D01*
X0041722Y0081205D01*
X0041639Y0081172D01*
X0041557Y0081136D01*
X0041477Y0081097D01*
X0041399Y0081054D01*
X0041323Y0081008D01*
X0041249Y0080958D01*
X0041177Y0080906D01*
X0041107Y0080850D01*
X0041040Y0080791D01*
X0040976Y0080729D01*
X0040914Y0080665D01*
X0040855Y0080598D01*
X0040799Y0080528D01*
X0040747Y0080456D01*
X0040697Y0080382D01*
X0040651Y0080306D01*
X0040608Y0080228D01*
X0040569Y0080148D01*
X0040533Y0080066D01*
X0040500Y0079983D01*
X0040472Y0079899D01*
X0040447Y0079813D01*
X0040425Y0079726D01*
X0040408Y0079639D01*
X0040394Y0079551D01*
X0040385Y0079462D01*
X0040379Y0079373D01*
X0040377Y0079284D01*
X0040376Y0083997D02*
X0040376Y0084508D01*
X0040887Y0084508D01*
X0040887Y0083997D01*
X0040376Y0083997D01*
X0040376Y0087725D02*
X0040376Y0090281D01*
X0040378Y0090381D01*
X0040384Y0090482D01*
X0040394Y0090581D01*
X0040407Y0090681D01*
X0040425Y0090780D01*
X0040447Y0090878D01*
X0040472Y0090975D01*
X0040501Y0091071D01*
X0040534Y0091166D01*
X0040571Y0091259D01*
X0040611Y0091351D01*
X0040655Y0091441D01*
X0040702Y0091530D01*
X0040753Y0091617D01*
X0040807Y0091701D01*
X0040864Y0091783D01*
X0040925Y0091863D01*
X0040988Y0091941D01*
X0041055Y0092016D01*
X0041125Y0092088D01*
X0041197Y0092158D01*
X0041272Y0092225D01*
X0041350Y0092288D01*
X0041430Y0092349D01*
X0041512Y0092406D01*
X0041596Y0092460D01*
X0041683Y0092511D01*
X0041772Y0092558D01*
X0041862Y0092602D01*
X0041954Y0092642D01*
X0042047Y0092679D01*
X0042142Y0092712D01*
X0042238Y0092741D01*
X0042335Y0092766D01*
X0042433Y0092788D01*
X0042532Y0092806D01*
X0042632Y0092819D01*
X0042731Y0092829D01*
X0042832Y0092835D01*
X0042932Y0092837D01*
X0042932Y0092836D02*
X0047021Y0092836D01*
X0047021Y0092837D02*
X0047121Y0092835D01*
X0047222Y0092829D01*
X0047321Y0092819D01*
X0047421Y0092806D01*
X0047520Y0092788D01*
X0047618Y0092766D01*
X0047715Y0092741D01*
X0047811Y0092712D01*
X0047906Y0092679D01*
X0047999Y0092642D01*
X0048091Y0092602D01*
X0048181Y0092558D01*
X0048270Y0092511D01*
X0048357Y0092460D01*
X0048441Y0092406D01*
X0048523Y0092349D01*
X0048603Y0092288D01*
X0048681Y0092225D01*
X0048756Y0092158D01*
X0048828Y0092088D01*
X0048898Y0092016D01*
X0048965Y0091941D01*
X0049028Y0091863D01*
X0049089Y0091783D01*
X0049146Y0091701D01*
X0049200Y0091617D01*
X0049251Y0091530D01*
X0049298Y0091441D01*
X0049342Y0091351D01*
X0049382Y0091259D01*
X0049419Y0091166D01*
X0049452Y0091071D01*
X0049481Y0090975D01*
X0049506Y0090878D01*
X0049528Y0090780D01*
X0049546Y0090681D01*
X0049559Y0090581D01*
X0049569Y0090482D01*
X0049575Y0090381D01*
X0049577Y0090281D01*
X0049576Y0090281D02*
X0049576Y0087725D01*
X0040376Y0087725D01*
X0040376Y0096551D02*
X0049576Y0096551D01*
X0045999Y0098596D02*
X0040376Y0101662D01*
X0043954Y0096551D02*
X0049576Y0101662D01*
X0045743Y0077495D02*
X0045791Y0077419D01*
X0045841Y0077344D01*
X0045895Y0077272D01*
X0045952Y0077203D01*
X0046011Y0077136D01*
X0046074Y0077071D01*
X0046139Y0077010D01*
X0046207Y0076951D01*
X0046277Y0076895D01*
X0046350Y0076842D01*
X0046425Y0076793D01*
X0046502Y0076747D01*
X0046581Y0076704D01*
X0046662Y0076664D01*
X0046744Y0076628D01*
X0046828Y0076596D01*
X0046913Y0076567D01*
X0046999Y0076543D01*
X0047086Y0076521D01*
X0047175Y0076504D01*
X0047263Y0076490D01*
X0047353Y0076481D01*
X0047442Y0076475D01*
X0047532Y0076473D01*
X0047621Y0076475D01*
X0047710Y0076481D01*
X0047799Y0076490D01*
X0047887Y0076504D01*
X0047974Y0076521D01*
X0048061Y0076543D01*
X0048147Y0076568D01*
X0048231Y0076596D01*
X0048314Y0076629D01*
X0048396Y0076665D01*
X0048476Y0076704D01*
X0048554Y0076747D01*
X0048630Y0076793D01*
X0048704Y0076843D01*
X0048776Y0076895D01*
X0048846Y0076951D01*
X0048913Y0077010D01*
X0048977Y0077072D01*
X0049039Y0077136D01*
X0049098Y0077203D01*
X0049154Y0077273D01*
X0049206Y0077345D01*
X0049256Y0077419D01*
X0049302Y0077495D01*
X0049345Y0077573D01*
X0049384Y0077653D01*
X0049420Y0077735D01*
X0049453Y0077818D01*
X0049481Y0077902D01*
X0049506Y0077988D01*
X0049528Y0078075D01*
X0049545Y0078162D01*
X0049559Y0078250D01*
X0049568Y0078339D01*
X0049574Y0078428D01*
X0049576Y0078517D01*
X0049574Y0078640D01*
X0049568Y0078764D01*
X0049558Y0078886D01*
X0049544Y0079009D01*
X0049527Y0079131D01*
X0049505Y0079252D01*
X0049479Y0079373D01*
X0049450Y0079493D01*
X0049416Y0079612D01*
X0049379Y0079729D01*
X0049338Y0079845D01*
X0049294Y0079960D01*
X0049246Y0080074D01*
X0049194Y0080186D01*
X0049138Y0080296D01*
X0049079Y0080404D01*
X0049017Y0080511D01*
X0048951Y0080615D01*
X0048882Y0080717D01*
X0048809Y0080817D01*
D11*
X0022969Y0137614D03*
X0083598Y0137614D03*
X0063126Y0021866D03*
X0043441Y0021866D03*
D12*
X0107736Y0017063D02*
X0114736Y0017063D01*
X0114736Y0037063D02*
X0107736Y0037063D01*
D13*
X0101394Y0122063D03*
D14*
X0115173Y0122063D03*
D15*
X0018717Y0006906D03*
X0028717Y0006906D03*
X0088283Y0007063D03*
X0098283Y0007063D03*
X0007795Y0131630D03*
X0007795Y0141630D03*
X0099031Y0141551D03*
X0109031Y0141551D03*
M02*
