G75*
%MOIN*%
%OFA0B0*%
%FSLAX25Y25*%
%IPPOS*%
%LPD*%
%AMOC8*
5,1,8,0,0,1.08239X$1,22.5*
%
%ADD10C,0.00400*%
%ADD11C,0.00800*%
%ADD12C,0.00500*%
D10*
X0018483Y0019940D02*
X0023083Y0019940D01*
X0023083Y0022496D02*
X0018483Y0022496D01*
X0020528Y0022496D02*
X0020528Y0019940D01*
X0021295Y0024807D02*
X0018483Y0027362D01*
X0018483Y0029249D02*
X0023083Y0029249D01*
X0023083Y0031293D01*
X0023083Y0033207D02*
X0018483Y0033207D01*
X0018483Y0034485D01*
X0018485Y0034555D01*
X0018491Y0034626D01*
X0018500Y0034695D01*
X0018514Y0034764D01*
X0018531Y0034833D01*
X0018552Y0034900D01*
X0018577Y0034966D01*
X0018605Y0035030D01*
X0018637Y0035093D01*
X0018672Y0035154D01*
X0018711Y0035213D01*
X0018752Y0035270D01*
X0018797Y0035324D01*
X0018845Y0035376D01*
X0018895Y0035425D01*
X0018949Y0035472D01*
X0019004Y0035515D01*
X0019062Y0035555D01*
X0019122Y0035592D01*
X0019184Y0035625D01*
X0019248Y0035655D01*
X0019313Y0035682D01*
X0019379Y0035705D01*
X0019447Y0035724D01*
X0019516Y0035739D01*
X0019585Y0035751D01*
X0019655Y0035759D01*
X0019726Y0035763D01*
X0019796Y0035763D01*
X0019867Y0035759D01*
X0019937Y0035751D01*
X0020006Y0035739D01*
X0020075Y0035724D01*
X0020143Y0035705D01*
X0020209Y0035682D01*
X0020274Y0035655D01*
X0020338Y0035625D01*
X0020400Y0035592D01*
X0020460Y0035555D01*
X0020518Y0035515D01*
X0020573Y0035472D01*
X0020627Y0035425D01*
X0020677Y0035376D01*
X0020725Y0035324D01*
X0020770Y0035270D01*
X0020811Y0035213D01*
X0020850Y0035154D01*
X0020885Y0035093D01*
X0020917Y0035030D01*
X0020945Y0034966D01*
X0020970Y0034900D01*
X0020991Y0034833D01*
X0021008Y0034764D01*
X0021022Y0034695D01*
X0021031Y0034626D01*
X0021037Y0034555D01*
X0021039Y0034485D01*
X0021039Y0033207D01*
X0019506Y0037490D02*
X0018483Y0038768D01*
X0023083Y0038768D01*
X0023083Y0037490D02*
X0023083Y0040046D01*
X0023083Y0027362D02*
X0020272Y0025829D01*
X0018483Y0024807D02*
X0023083Y0024807D01*
D11*
X0013717Y0004406D02*
X0016217Y0001906D01*
X0021217Y0001906D01*
X0023717Y0004406D01*
X0026217Y0001906D01*
X0031217Y0001906D01*
X0033717Y0004406D01*
X0033717Y0009406D01*
X0031217Y0011906D01*
X0026217Y0011906D01*
X0023717Y0009406D01*
X0021217Y0011906D01*
X0016217Y0011906D01*
X0013717Y0009406D01*
X0013717Y0004406D01*
X0083283Y0004563D02*
X0085783Y0002063D01*
X0090783Y0002063D01*
X0093283Y0004563D01*
X0095783Y0002063D01*
X0100783Y0002063D01*
X0103283Y0004563D01*
X0103283Y0009563D01*
X0100783Y0012063D01*
X0095783Y0012063D01*
X0093283Y0009563D01*
X0090783Y0012063D01*
X0085783Y0012063D01*
X0083283Y0009563D01*
X0083283Y0004563D01*
X0010295Y0126630D02*
X0005295Y0126630D01*
X0002795Y0129130D01*
X0002795Y0134130D01*
X0005295Y0136630D01*
X0002795Y0139130D01*
X0002795Y0144130D01*
X0005295Y0146630D01*
X0010295Y0146630D01*
X0012795Y0144130D01*
X0012795Y0139130D01*
X0010295Y0136630D01*
X0012795Y0134130D01*
X0012795Y0129130D01*
X0010295Y0126630D01*
X0094031Y0139051D02*
X0096531Y0136551D01*
X0101531Y0136551D01*
X0104031Y0139051D01*
X0106531Y0136551D01*
X0111531Y0136551D01*
X0114031Y0139051D01*
X0114031Y0144051D01*
X0111531Y0146551D01*
X0106531Y0146551D01*
X0104031Y0144051D01*
X0101531Y0146551D01*
X0096531Y0146551D01*
X0094031Y0144051D01*
X0094031Y0139051D01*
D12*
X0094281Y0147301D02*
X0094493Y0147301D01*
X0094532Y0147303D01*
X0094571Y0147308D01*
X0094608Y0147317D01*
X0094645Y0147329D01*
X0094681Y0147345D01*
X0094715Y0147364D01*
X0094747Y0147386D01*
X0094777Y0147411D01*
X0094805Y0147439D01*
X0094830Y0147469D01*
X0094852Y0147501D01*
X0094871Y0147535D01*
X0094887Y0147571D01*
X0094899Y0147608D01*
X0094908Y0147645D01*
X0094913Y0147684D01*
X0094915Y0147723D01*
X0094915Y0149201D01*
X0096075Y0149201D02*
X0096075Y0148357D01*
X0096709Y0148357D01*
X0096748Y0148355D01*
X0096787Y0148350D01*
X0096824Y0148341D01*
X0096861Y0148329D01*
X0096897Y0148313D01*
X0096931Y0148294D01*
X0096963Y0148272D01*
X0096993Y0148247D01*
X0097021Y0148219D01*
X0097046Y0148189D01*
X0097068Y0148157D01*
X0097087Y0148123D01*
X0097103Y0148087D01*
X0097115Y0148050D01*
X0097124Y0148013D01*
X0097129Y0147974D01*
X0097131Y0147935D01*
X0097131Y0147723D01*
X0097129Y0147684D01*
X0097124Y0147645D01*
X0097115Y0147608D01*
X0097103Y0147571D01*
X0097087Y0147535D01*
X0097068Y0147501D01*
X0097046Y0147469D01*
X0097021Y0147439D01*
X0096993Y0147411D01*
X0096963Y0147386D01*
X0096931Y0147364D01*
X0096897Y0147345D01*
X0096861Y0147329D01*
X0096824Y0147317D01*
X0096787Y0147308D01*
X0096748Y0147303D01*
X0096709Y0147301D01*
X0096075Y0147301D01*
X0096075Y0149201D02*
X0097131Y0149201D01*
X0015445Y0145852D02*
X0015445Y0145324D01*
X0015445Y0145852D02*
X0015443Y0145897D01*
X0015437Y0145941D01*
X0015428Y0145985D01*
X0015415Y0146028D01*
X0015398Y0146069D01*
X0015378Y0146110D01*
X0015354Y0146148D01*
X0015328Y0146184D01*
X0015298Y0146217D01*
X0015266Y0146248D01*
X0015231Y0146277D01*
X0015194Y0146302D01*
X0015155Y0146323D01*
X0015114Y0146342D01*
X0015072Y0146357D01*
X0015028Y0146368D01*
X0014984Y0146376D01*
X0014939Y0146380D01*
X0014895Y0146380D01*
X0014850Y0146376D01*
X0014806Y0146368D01*
X0014762Y0146357D01*
X0014720Y0146342D01*
X0014679Y0146323D01*
X0014640Y0146302D01*
X0014603Y0146277D01*
X0014568Y0146248D01*
X0014536Y0146217D01*
X0014506Y0146184D01*
X0014480Y0146148D01*
X0014456Y0146110D01*
X0014436Y0146069D01*
X0014419Y0146028D01*
X0014406Y0145985D01*
X0014397Y0145941D01*
X0014391Y0145897D01*
X0014389Y0145852D01*
X0014390Y0145958D02*
X0014390Y0145535D01*
X0014389Y0145958D02*
X0014387Y0145998D01*
X0014381Y0146038D01*
X0014372Y0146077D01*
X0014359Y0146115D01*
X0014342Y0146151D01*
X0014322Y0146186D01*
X0014299Y0146219D01*
X0014272Y0146249D01*
X0014243Y0146277D01*
X0014212Y0146302D01*
X0014178Y0146323D01*
X0014142Y0146342D01*
X0014105Y0146357D01*
X0014066Y0146368D01*
X0014027Y0146376D01*
X0013987Y0146380D01*
X0013947Y0146380D01*
X0013907Y0146376D01*
X0013868Y0146368D01*
X0013829Y0146357D01*
X0013792Y0146342D01*
X0013756Y0146323D01*
X0013722Y0146302D01*
X0013691Y0146277D01*
X0013662Y0146249D01*
X0013635Y0146219D01*
X0013612Y0146186D01*
X0013592Y0146151D01*
X0013575Y0146115D01*
X0013562Y0146077D01*
X0013553Y0146038D01*
X0013547Y0145998D01*
X0013545Y0145958D01*
X0013545Y0145324D01*
X0013545Y0144164D02*
X0015023Y0144164D01*
X0015062Y0144162D01*
X0015101Y0144157D01*
X0015138Y0144148D01*
X0015175Y0144136D01*
X0015211Y0144120D01*
X0015245Y0144101D01*
X0015277Y0144079D01*
X0015307Y0144054D01*
X0015335Y0144026D01*
X0015360Y0143996D01*
X0015382Y0143964D01*
X0015401Y0143930D01*
X0015417Y0143894D01*
X0015429Y0143857D01*
X0015438Y0143820D01*
X0015443Y0143781D01*
X0015445Y0143742D01*
X0015445Y0143530D01*
X0014600Y0014556D02*
X0014600Y0013078D01*
X0014598Y0013039D01*
X0014593Y0013000D01*
X0014584Y0012963D01*
X0014572Y0012926D01*
X0014556Y0012890D01*
X0014537Y0012856D01*
X0014515Y0012824D01*
X0014490Y0012794D01*
X0014462Y0012766D01*
X0014432Y0012741D01*
X0014400Y0012719D01*
X0014366Y0012700D01*
X0014330Y0012684D01*
X0014293Y0012672D01*
X0014256Y0012663D01*
X0014217Y0012658D01*
X0014178Y0012656D01*
X0013967Y0012656D01*
X0015760Y0012656D02*
X0016816Y0012656D01*
X0015760Y0012656D02*
X0016658Y0013711D01*
X0016341Y0014555D02*
X0016293Y0014553D01*
X0016246Y0014547D01*
X0016198Y0014538D01*
X0016152Y0014525D01*
X0016107Y0014508D01*
X0016064Y0014488D01*
X0016022Y0014465D01*
X0015982Y0014438D01*
X0015945Y0014409D01*
X0015909Y0014376D01*
X0015877Y0014341D01*
X0015847Y0014303D01*
X0015821Y0014263D01*
X0015797Y0014221D01*
X0015777Y0014178D01*
X0015761Y0014133D01*
X0016658Y0013711D02*
X0016686Y0013740D01*
X0016713Y0013772D01*
X0016736Y0013806D01*
X0016757Y0013842D01*
X0016775Y0013879D01*
X0016789Y0013918D01*
X0016801Y0013957D01*
X0016809Y0013998D01*
X0016814Y0014039D01*
X0016816Y0014080D01*
X0016814Y0014121D01*
X0016809Y0014162D01*
X0016800Y0014203D01*
X0016787Y0014242D01*
X0016771Y0014281D01*
X0016752Y0014318D01*
X0016730Y0014352D01*
X0016705Y0014385D01*
X0016677Y0014416D01*
X0016646Y0014444D01*
X0016613Y0014469D01*
X0016579Y0014491D01*
X0016542Y0014510D01*
X0016503Y0014526D01*
X0016464Y0014539D01*
X0016423Y0014548D01*
X0016382Y0014553D01*
X0016341Y0014555D01*
X0083533Y0012813D02*
X0083745Y0012813D01*
X0083784Y0012815D01*
X0083823Y0012820D01*
X0083860Y0012829D01*
X0083897Y0012841D01*
X0083933Y0012857D01*
X0083967Y0012876D01*
X0083999Y0012898D01*
X0084029Y0012923D01*
X0084057Y0012951D01*
X0084082Y0012981D01*
X0084104Y0013013D01*
X0084123Y0013047D01*
X0084139Y0013083D01*
X0084151Y0013120D01*
X0084160Y0013157D01*
X0084165Y0013196D01*
X0084167Y0013235D01*
X0084167Y0014713D01*
X0085750Y0014713D02*
X0085327Y0013235D01*
X0086383Y0013235D01*
X0086066Y0013657D02*
X0086066Y0012813D01*
M02*
