G75*
%MOIN*%
%OFA0B0*%
%FSLAX25Y25*%
%IPPOS*%
%LPD*%
%AMOC8*
5,1,8,0,0,1.08239X$1,22.5*
%
%ADD10C,0.00600*%
%ADD11C,0.07400*%
%ADD12R,0.04724X0.07874*%
%ADD13C,0.06000*%
%ADD14C,0.03200*%
%ADD15C,0.02578*%
%ADD16C,0.01000*%
D10*
X0098410Y0133200D02*
X0100543Y0137112D01*
X0101966Y0135689D02*
X0098410Y0139600D01*
X0101966Y0139600D02*
X0101966Y0133200D01*
X0105058Y0134978D02*
X0105058Y0137823D01*
X0105057Y0137823D02*
X0105059Y0137905D01*
X0105065Y0137987D01*
X0105074Y0138069D01*
X0105087Y0138150D01*
X0105104Y0138230D01*
X0105125Y0138310D01*
X0105149Y0138388D01*
X0105177Y0138465D01*
X0105208Y0138541D01*
X0105243Y0138616D01*
X0105282Y0138688D01*
X0105323Y0138759D01*
X0105368Y0138828D01*
X0105416Y0138894D01*
X0105467Y0138959D01*
X0105521Y0139021D01*
X0105578Y0139080D01*
X0105637Y0139137D01*
X0105699Y0139191D01*
X0105764Y0139242D01*
X0105830Y0139290D01*
X0105899Y0139335D01*
X0105970Y0139376D01*
X0106042Y0139415D01*
X0106117Y0139450D01*
X0106193Y0139481D01*
X0106270Y0139509D01*
X0106348Y0139533D01*
X0106428Y0139554D01*
X0106508Y0139571D01*
X0106589Y0139584D01*
X0106671Y0139593D01*
X0106753Y0139599D01*
X0106835Y0139601D01*
X0106835Y0139600D02*
X0108613Y0139600D01*
X0108613Y0133200D01*
X0106835Y0133200D01*
X0106753Y0133202D01*
X0106671Y0133208D01*
X0106589Y0133217D01*
X0106508Y0133230D01*
X0106428Y0133247D01*
X0106348Y0133268D01*
X0106270Y0133292D01*
X0106193Y0133320D01*
X0106117Y0133351D01*
X0106042Y0133386D01*
X0105970Y0133425D01*
X0105899Y0133466D01*
X0105830Y0133511D01*
X0105764Y0133559D01*
X0105699Y0133610D01*
X0105637Y0133664D01*
X0105578Y0133721D01*
X0105521Y0133780D01*
X0105467Y0133842D01*
X0105416Y0133907D01*
X0105368Y0133973D01*
X0105323Y0134042D01*
X0105282Y0134113D01*
X0105243Y0134185D01*
X0105208Y0134260D01*
X0105177Y0134336D01*
X0105149Y0134413D01*
X0105125Y0134491D01*
X0105104Y0134571D01*
X0105087Y0134651D01*
X0105074Y0134732D01*
X0105065Y0134814D01*
X0105059Y0134896D01*
X0105057Y0134978D01*
X0111170Y0133556D02*
X0111170Y0133200D01*
X0111526Y0133200D01*
X0111526Y0133556D01*
X0111170Y0133556D01*
X0114384Y0135867D02*
X0116340Y0136934D01*
X0115629Y0139601D02*
X0115528Y0139599D01*
X0115427Y0139593D01*
X0115327Y0139584D01*
X0115227Y0139570D01*
X0115127Y0139553D01*
X0115028Y0139533D01*
X0114931Y0139508D01*
X0114834Y0139480D01*
X0114738Y0139448D01*
X0114643Y0139412D01*
X0114550Y0139373D01*
X0114459Y0139331D01*
X0114369Y0139285D01*
X0114281Y0139235D01*
X0114195Y0139183D01*
X0114111Y0139127D01*
X0114029Y0139068D01*
X0116339Y0136934D02*
X0116403Y0136974D01*
X0116464Y0137017D01*
X0116523Y0137063D01*
X0116580Y0137112D01*
X0116634Y0137164D01*
X0116685Y0137218D01*
X0116733Y0137276D01*
X0116779Y0137335D01*
X0116821Y0137397D01*
X0116860Y0137462D01*
X0116895Y0137528D01*
X0116927Y0137595D01*
X0116956Y0137665D01*
X0116981Y0137735D01*
X0117002Y0137807D01*
X0117019Y0137880D01*
X0117033Y0137954D01*
X0117042Y0138028D01*
X0117048Y0138103D01*
X0117050Y0138178D01*
X0117051Y0138178D02*
X0117049Y0138252D01*
X0117043Y0138327D01*
X0117033Y0138400D01*
X0117020Y0138474D01*
X0117003Y0138546D01*
X0116981Y0138617D01*
X0116957Y0138688D01*
X0116928Y0138756D01*
X0116896Y0138824D01*
X0116860Y0138889D01*
X0116822Y0138952D01*
X0116779Y0139014D01*
X0116734Y0139073D01*
X0116686Y0139130D01*
X0116635Y0139184D01*
X0116581Y0139235D01*
X0116524Y0139283D01*
X0116465Y0139328D01*
X0116403Y0139371D01*
X0116340Y0139409D01*
X0116275Y0139445D01*
X0116207Y0139477D01*
X0116139Y0139506D01*
X0116068Y0139530D01*
X0115997Y0139552D01*
X0115925Y0139569D01*
X0115851Y0139582D01*
X0115778Y0139592D01*
X0115703Y0139598D01*
X0115629Y0139600D01*
X0117228Y0134090D02*
X0117151Y0134015D01*
X0117071Y0133942D01*
X0116988Y0133873D01*
X0116903Y0133806D01*
X0116816Y0133743D01*
X0116727Y0133683D01*
X0116635Y0133626D01*
X0116542Y0133572D01*
X0116446Y0133522D01*
X0116349Y0133475D01*
X0116250Y0133432D01*
X0116150Y0133392D01*
X0116049Y0133356D01*
X0115946Y0133324D01*
X0115842Y0133295D01*
X0115737Y0133270D01*
X0115631Y0133249D01*
X0115525Y0133232D01*
X0115418Y0133218D01*
X0115310Y0133209D01*
X0115203Y0133203D01*
X0115095Y0133201D01*
X0115021Y0133203D01*
X0114946Y0133209D01*
X0114873Y0133219D01*
X0114799Y0133232D01*
X0114727Y0133249D01*
X0114656Y0133271D01*
X0114585Y0133295D01*
X0114517Y0133324D01*
X0114449Y0133356D01*
X0114384Y0133392D01*
X0114321Y0133430D01*
X0114259Y0133473D01*
X0114200Y0133518D01*
X0114143Y0133566D01*
X0114089Y0133617D01*
X0114038Y0133671D01*
X0113990Y0133728D01*
X0113945Y0133787D01*
X0113902Y0133849D01*
X0113864Y0133912D01*
X0113828Y0133977D01*
X0113796Y0134045D01*
X0113767Y0134113D01*
X0113743Y0134184D01*
X0113721Y0134255D01*
X0113704Y0134327D01*
X0113691Y0134401D01*
X0113681Y0134474D01*
X0113675Y0134549D01*
X0113673Y0134623D01*
X0113674Y0134623D02*
X0113676Y0134698D01*
X0113682Y0134773D01*
X0113691Y0134847D01*
X0113705Y0134921D01*
X0113722Y0134994D01*
X0113743Y0135066D01*
X0113768Y0135136D01*
X0113797Y0135206D01*
X0113829Y0135273D01*
X0113864Y0135339D01*
X0113903Y0135404D01*
X0113945Y0135466D01*
X0113991Y0135525D01*
X0114039Y0135583D01*
X0114090Y0135637D01*
X0114144Y0135689D01*
X0114201Y0135738D01*
X0114260Y0135784D01*
X0114321Y0135827D01*
X0114385Y0135867D01*
X0119800Y0134800D02*
X0123000Y0134800D01*
X0123533Y0133200D02*
X0121400Y0139600D01*
X0119266Y0133200D01*
X0125740Y0133200D02*
X0127162Y0136045D01*
X0127518Y0136045D02*
X0129296Y0136045D01*
X0127518Y0136045D02*
X0127435Y0136047D01*
X0127352Y0136053D01*
X0127269Y0136063D01*
X0127186Y0136076D01*
X0127105Y0136094D01*
X0127024Y0136115D01*
X0126945Y0136140D01*
X0126867Y0136169D01*
X0126790Y0136201D01*
X0126715Y0136237D01*
X0126641Y0136276D01*
X0126570Y0136319D01*
X0126500Y0136365D01*
X0126433Y0136415D01*
X0126368Y0136467D01*
X0126306Y0136522D01*
X0126246Y0136581D01*
X0126189Y0136642D01*
X0126135Y0136705D01*
X0126084Y0136771D01*
X0126037Y0136840D01*
X0125992Y0136910D01*
X0125951Y0136983D01*
X0125914Y0137057D01*
X0125879Y0137133D01*
X0125849Y0137211D01*
X0125822Y0137289D01*
X0125799Y0137370D01*
X0125779Y0137451D01*
X0125764Y0137533D01*
X0125752Y0137615D01*
X0125744Y0137698D01*
X0125740Y0137781D01*
X0125740Y0137865D01*
X0125744Y0137948D01*
X0125752Y0138031D01*
X0125764Y0138113D01*
X0125779Y0138195D01*
X0125799Y0138276D01*
X0125822Y0138357D01*
X0125849Y0138435D01*
X0125879Y0138513D01*
X0125914Y0138589D01*
X0125951Y0138663D01*
X0125992Y0138736D01*
X0126037Y0138806D01*
X0126084Y0138875D01*
X0126135Y0138941D01*
X0126189Y0139004D01*
X0126246Y0139065D01*
X0126306Y0139124D01*
X0126368Y0139179D01*
X0126433Y0139231D01*
X0126500Y0139281D01*
X0126570Y0139327D01*
X0126641Y0139370D01*
X0126715Y0139409D01*
X0126790Y0139445D01*
X0126867Y0139477D01*
X0126945Y0139506D01*
X0127024Y0139531D01*
X0127105Y0139552D01*
X0127186Y0139570D01*
X0127269Y0139583D01*
X0127352Y0139593D01*
X0127435Y0139599D01*
X0127518Y0139601D01*
X0127518Y0139600D02*
X0129296Y0139600D01*
X0129296Y0133200D01*
X0131809Y0133200D02*
X0134653Y0133200D01*
X0134653Y0139600D01*
X0131809Y0139600D01*
X0132520Y0136756D02*
X0134653Y0136756D01*
X0137975Y0135867D02*
X0139930Y0136934D01*
X0139219Y0139601D02*
X0139118Y0139599D01*
X0139017Y0139593D01*
X0138917Y0139584D01*
X0138817Y0139570D01*
X0138717Y0139553D01*
X0138618Y0139533D01*
X0138521Y0139508D01*
X0138424Y0139480D01*
X0138328Y0139448D01*
X0138233Y0139412D01*
X0138140Y0139373D01*
X0138049Y0139331D01*
X0137959Y0139285D01*
X0137871Y0139235D01*
X0137785Y0139183D01*
X0137701Y0139127D01*
X0137619Y0139068D01*
X0139930Y0136934D02*
X0139994Y0136974D01*
X0140055Y0137017D01*
X0140114Y0137063D01*
X0140171Y0137112D01*
X0140225Y0137164D01*
X0140276Y0137218D01*
X0140324Y0137276D01*
X0140370Y0137335D01*
X0140412Y0137397D01*
X0140451Y0137462D01*
X0140486Y0137528D01*
X0140518Y0137595D01*
X0140547Y0137665D01*
X0140572Y0137735D01*
X0140593Y0137807D01*
X0140610Y0137880D01*
X0140624Y0137954D01*
X0140633Y0138028D01*
X0140639Y0138103D01*
X0140641Y0138178D01*
X0140639Y0138252D01*
X0140633Y0138327D01*
X0140623Y0138400D01*
X0140610Y0138474D01*
X0140593Y0138546D01*
X0140571Y0138617D01*
X0140547Y0138688D01*
X0140518Y0138756D01*
X0140486Y0138824D01*
X0140450Y0138889D01*
X0140412Y0138952D01*
X0140369Y0139014D01*
X0140324Y0139073D01*
X0140276Y0139130D01*
X0140225Y0139184D01*
X0140171Y0139235D01*
X0140114Y0139283D01*
X0140055Y0139328D01*
X0139993Y0139371D01*
X0139930Y0139409D01*
X0139865Y0139445D01*
X0139797Y0139477D01*
X0139729Y0139506D01*
X0139658Y0139530D01*
X0139587Y0139552D01*
X0139515Y0139569D01*
X0139441Y0139582D01*
X0139368Y0139592D01*
X0139293Y0139598D01*
X0139219Y0139600D01*
X0140819Y0134090D02*
X0140742Y0134015D01*
X0140662Y0133942D01*
X0140579Y0133873D01*
X0140494Y0133806D01*
X0140407Y0133743D01*
X0140318Y0133683D01*
X0140226Y0133626D01*
X0140133Y0133572D01*
X0140037Y0133522D01*
X0139940Y0133475D01*
X0139841Y0133432D01*
X0139741Y0133392D01*
X0139640Y0133356D01*
X0139537Y0133324D01*
X0139433Y0133295D01*
X0139328Y0133270D01*
X0139222Y0133249D01*
X0139116Y0133232D01*
X0139009Y0133218D01*
X0138901Y0133209D01*
X0138794Y0133203D01*
X0138686Y0133201D01*
X0138612Y0133203D01*
X0138537Y0133209D01*
X0138464Y0133219D01*
X0138390Y0133232D01*
X0138318Y0133249D01*
X0138247Y0133271D01*
X0138176Y0133295D01*
X0138108Y0133324D01*
X0138040Y0133356D01*
X0137975Y0133392D01*
X0137912Y0133430D01*
X0137850Y0133473D01*
X0137791Y0133518D01*
X0137734Y0133566D01*
X0137680Y0133617D01*
X0137629Y0133671D01*
X0137581Y0133728D01*
X0137536Y0133787D01*
X0137493Y0133849D01*
X0137455Y0133912D01*
X0137419Y0133977D01*
X0137387Y0134045D01*
X0137358Y0134113D01*
X0137334Y0134184D01*
X0137312Y0134255D01*
X0137295Y0134327D01*
X0137282Y0134401D01*
X0137272Y0134474D01*
X0137266Y0134549D01*
X0137264Y0134623D01*
X0137266Y0134698D01*
X0137272Y0134773D01*
X0137281Y0134847D01*
X0137295Y0134921D01*
X0137312Y0134994D01*
X0137333Y0135066D01*
X0137358Y0135136D01*
X0137387Y0135206D01*
X0137419Y0135273D01*
X0137454Y0135339D01*
X0137493Y0135404D01*
X0137535Y0135466D01*
X0137581Y0135525D01*
X0137629Y0135583D01*
X0137680Y0135637D01*
X0137734Y0135689D01*
X0137791Y0135738D01*
X0137850Y0135784D01*
X0137911Y0135827D01*
X0137975Y0135867D01*
D11*
X0036619Y0020900D03*
X0036619Y0030900D03*
X0036619Y0040900D03*
X0049351Y0015680D03*
X0059351Y0015680D03*
X0118918Y0015837D03*
X0128918Y0015837D03*
X0038430Y0140404D03*
X0038430Y0150404D03*
X0019816Y0151514D03*
X0012745Y0158586D03*
X0129666Y0150326D03*
X0139666Y0150326D03*
D12*
X0108836Y0100428D03*
X0100962Y0100428D03*
X0093088Y0100428D03*
X0085214Y0100428D03*
X0077340Y0100428D03*
X0069466Y0100428D03*
X0061592Y0100428D03*
X0053718Y0100428D03*
X0053718Y0041373D03*
X0061592Y0041373D03*
X0069466Y0041373D03*
X0077340Y0041373D03*
X0085214Y0041373D03*
X0093088Y0041373D03*
X0100962Y0041373D03*
X0108836Y0041373D03*
D13*
X0113328Y0079609D02*
X0113328Y0085609D01*
X0103328Y0085609D02*
X0103328Y0079609D01*
X0093328Y0079609D02*
X0093328Y0085609D01*
X0083328Y0085609D02*
X0083328Y0079609D01*
X0073328Y0079609D02*
X0073328Y0085609D01*
X0063328Y0085609D02*
X0063328Y0079609D01*
D14*
X0063328Y0082609D02*
X0063328Y0090109D01*
X0065119Y0091900D01*
X0075619Y0091900D01*
X0077340Y0093621D01*
X0077340Y0100428D01*
X0084714Y0102853D02*
X0085214Y0100428D01*
X0084714Y0102853D02*
X0079759Y0108807D01*
X0079759Y0123915D01*
X0084545Y0123700D01*
X0117259Y0123700D01*
X0137463Y0103996D01*
X0142963Y0103996D01*
X0143900Y0103059D01*
X0143900Y0074619D01*
X0153119Y0062900D01*
X0122619Y0079400D02*
X0116619Y0073400D01*
X0086828Y0073400D01*
X0083328Y0076900D01*
X0083328Y0082609D01*
X0083328Y0076900D02*
X0083328Y0066881D01*
X0102699Y0049510D01*
X0104235Y0049510D01*
X0108524Y0047221D01*
X0109024Y0044685D01*
X0108836Y0041373D01*
X0077340Y0041373D02*
X0077340Y0016121D01*
X0070619Y0009400D01*
X0059351Y0015680D02*
X0049351Y0015680D01*
X0049351Y0028168D01*
X0036619Y0040900D01*
X0036619Y0046400D01*
X0058119Y0067900D01*
X0053619Y0067900D01*
X0051619Y0070400D01*
X0051619Y0093900D01*
X0053718Y0096499D01*
X0053718Y0100428D01*
X0038430Y0126215D01*
X0038430Y0131900D01*
X0044615Y0140404D02*
X0047119Y0137900D01*
X0053119Y0131900D01*
X0053119Y0111400D01*
X0061119Y0115900D02*
X0061119Y0116400D01*
X0061119Y0115900D02*
X0061592Y0115428D01*
X0061592Y0100428D01*
X0069466Y0100428D02*
X0069466Y0109054D01*
X0069119Y0109400D01*
X0053718Y0100428D02*
X0046690Y0103900D01*
X0025119Y0103900D01*
X0025189Y0103970D01*
X0025119Y0103900D02*
X0027189Y0103970D01*
X0030119Y0097900D02*
X0047119Y0097900D01*
X0073328Y0082609D02*
X0073328Y0060983D01*
X0063545Y0051200D01*
X0060045Y0051200D01*
X0053718Y0044873D01*
X0053718Y0041373D01*
X0053718Y0032302D01*
X0058619Y0027400D01*
X0062619Y0027400D01*
X0061119Y0033400D02*
X0061619Y0033900D01*
X0061592Y0033928D01*
X0061592Y0041373D01*
X0069119Y0041719D02*
X0069119Y0048400D01*
X0069119Y0041719D02*
X0069466Y0041373D01*
X0093328Y0082609D02*
X0098128Y0087409D01*
X0098128Y0087763D01*
X0100962Y0090597D01*
X0100962Y0100428D01*
X0093088Y0100428D02*
X0097588Y0108869D01*
X0107119Y0108900D01*
X0115119Y0108900D01*
X0108836Y0100428D02*
X0108836Y0088471D01*
X0108128Y0087763D01*
X0108128Y0087409D01*
X0103328Y0082609D01*
X0122619Y0082400D02*
X0122619Y0079400D01*
X0076119Y0128400D02*
X0076119Y0137400D01*
X0054619Y0158900D01*
X0027202Y0158900D01*
X0019816Y0151514D01*
X0038430Y0150404D02*
X0038430Y0140404D01*
X0044615Y0140404D01*
X0067119Y0137900D02*
X0067619Y0137900D01*
X0067619Y0127900D01*
D15*
X0067619Y0127900D03*
X0076119Y0128400D03*
X0067119Y0137900D03*
X0047119Y0137900D03*
X0038430Y0131900D03*
X0053119Y0111400D03*
X0061119Y0116400D03*
X0069119Y0109400D03*
X0047119Y0097900D03*
X0030119Y0097900D03*
X0025189Y0103970D03*
X0058119Y0067900D03*
X0069119Y0048400D03*
X0061119Y0033400D03*
X0062619Y0027400D03*
X0070619Y0009400D03*
X0122619Y0082400D03*
X0115119Y0108900D03*
X0153119Y0062900D03*
D16*
X0093088Y0045932D02*
X0093088Y0041373D01*
X0093088Y0045932D02*
X0091619Y0047400D01*
X0085119Y0047400D01*
X0073328Y0059192D01*
X0073328Y0060983D01*
M02*
