G75*
%MOIN*%
%OFA0B0*%
%FSLAX25Y25*%
%IPPOS*%
%LPD*%
%AMOC8*
5,1,8,0,0,1.08239X$1,22.5*
%
%ADD10C,0.00600*%
%ADD11R,0.05000X0.10000*%
%ADD12C,0.07400*%
%ADD13R,0.04331X0.03937*%
%ADD14R,0.03150X0.02362*%
%ADD15C,0.06000*%
%ADD16C,0.03200*%
%ADD17C,0.02578*%
D10*
X0067919Y0020189D02*
X0072186Y0020189D01*
X0097585Y0133200D02*
X0097585Y0139600D01*
X0100429Y0139600D01*
X0102943Y0139600D02*
X0104720Y0139600D01*
X0102943Y0139600D02*
X0102943Y0133200D01*
X0100429Y0133200D02*
X0097585Y0133200D01*
X0097585Y0136756D02*
X0099718Y0136756D01*
X0102943Y0136045D02*
X0104720Y0136045D01*
X0105076Y0136045D02*
X0106498Y0133200D01*
X0108705Y0133200D02*
X0110838Y0139600D01*
X0112972Y0133200D01*
X0112438Y0134800D02*
X0109238Y0134800D01*
X0104720Y0136045D02*
X0104803Y0136047D01*
X0104886Y0136053D01*
X0104969Y0136063D01*
X0105052Y0136076D01*
X0105133Y0136094D01*
X0105214Y0136115D01*
X0105293Y0136140D01*
X0105371Y0136169D01*
X0105448Y0136201D01*
X0105523Y0136237D01*
X0105597Y0136276D01*
X0105668Y0136319D01*
X0105738Y0136365D01*
X0105805Y0136415D01*
X0105870Y0136467D01*
X0105932Y0136522D01*
X0105992Y0136581D01*
X0106049Y0136642D01*
X0106103Y0136705D01*
X0106154Y0136771D01*
X0106201Y0136840D01*
X0106246Y0136910D01*
X0106287Y0136983D01*
X0106324Y0137057D01*
X0106359Y0137133D01*
X0106389Y0137211D01*
X0106416Y0137289D01*
X0106439Y0137370D01*
X0106459Y0137451D01*
X0106474Y0137533D01*
X0106486Y0137615D01*
X0106494Y0137698D01*
X0106498Y0137781D01*
X0106498Y0137865D01*
X0106494Y0137948D01*
X0106486Y0138031D01*
X0106474Y0138113D01*
X0106459Y0138195D01*
X0106439Y0138276D01*
X0106416Y0138357D01*
X0106389Y0138435D01*
X0106359Y0138513D01*
X0106324Y0138589D01*
X0106287Y0138663D01*
X0106246Y0138736D01*
X0106201Y0138806D01*
X0106154Y0138875D01*
X0106103Y0138941D01*
X0106049Y0139004D01*
X0105992Y0139065D01*
X0105932Y0139124D01*
X0105870Y0139179D01*
X0105805Y0139231D01*
X0105738Y0139281D01*
X0105668Y0139327D01*
X0105597Y0139370D01*
X0105523Y0139409D01*
X0105448Y0139445D01*
X0105371Y0139477D01*
X0105293Y0139506D01*
X0105214Y0139531D01*
X0105133Y0139552D01*
X0105052Y0139570D01*
X0104969Y0139583D01*
X0104886Y0139593D01*
X0104803Y0139599D01*
X0104720Y0139601D01*
X0094264Y0135867D02*
X0092308Y0136934D01*
X0093019Y0139601D02*
X0093120Y0139599D01*
X0093221Y0139593D01*
X0093321Y0139584D01*
X0093421Y0139570D01*
X0093521Y0139553D01*
X0093620Y0139533D01*
X0093717Y0139508D01*
X0093814Y0139480D01*
X0093910Y0139448D01*
X0094005Y0139412D01*
X0094098Y0139373D01*
X0094189Y0139331D01*
X0094279Y0139285D01*
X0094367Y0139235D01*
X0094453Y0139183D01*
X0094537Y0139127D01*
X0094619Y0139068D01*
X0092308Y0136934D02*
X0092244Y0136974D01*
X0092183Y0137017D01*
X0092124Y0137063D01*
X0092067Y0137112D01*
X0092013Y0137164D01*
X0091962Y0137218D01*
X0091914Y0137276D01*
X0091868Y0137335D01*
X0091826Y0137397D01*
X0091787Y0137462D01*
X0091752Y0137528D01*
X0091720Y0137595D01*
X0091691Y0137665D01*
X0091666Y0137735D01*
X0091645Y0137807D01*
X0091628Y0137880D01*
X0091614Y0137954D01*
X0091605Y0138028D01*
X0091599Y0138103D01*
X0091597Y0138178D01*
X0091599Y0138252D01*
X0091605Y0138327D01*
X0091615Y0138400D01*
X0091628Y0138474D01*
X0091645Y0138546D01*
X0091667Y0138617D01*
X0091691Y0138688D01*
X0091720Y0138756D01*
X0091752Y0138824D01*
X0091788Y0138889D01*
X0091826Y0138952D01*
X0091869Y0139014D01*
X0091914Y0139073D01*
X0091962Y0139130D01*
X0092013Y0139184D01*
X0092068Y0139235D01*
X0092124Y0139283D01*
X0092183Y0139328D01*
X0092245Y0139371D01*
X0092308Y0139409D01*
X0092373Y0139445D01*
X0092441Y0139477D01*
X0092509Y0139506D01*
X0092580Y0139530D01*
X0092651Y0139552D01*
X0092723Y0139569D01*
X0092797Y0139582D01*
X0092870Y0139592D01*
X0092945Y0139598D01*
X0093019Y0139600D01*
X0091419Y0134090D02*
X0091496Y0134015D01*
X0091576Y0133942D01*
X0091659Y0133873D01*
X0091744Y0133806D01*
X0091831Y0133743D01*
X0091920Y0133683D01*
X0092012Y0133626D01*
X0092105Y0133572D01*
X0092201Y0133522D01*
X0092298Y0133475D01*
X0092397Y0133432D01*
X0092497Y0133392D01*
X0092598Y0133356D01*
X0092701Y0133324D01*
X0092805Y0133295D01*
X0092910Y0133270D01*
X0093016Y0133249D01*
X0093122Y0133232D01*
X0093229Y0133218D01*
X0093337Y0133209D01*
X0093444Y0133203D01*
X0093552Y0133201D01*
X0093626Y0133203D01*
X0093701Y0133209D01*
X0093774Y0133219D01*
X0093848Y0133232D01*
X0093920Y0133249D01*
X0093991Y0133271D01*
X0094062Y0133295D01*
X0094130Y0133324D01*
X0094198Y0133356D01*
X0094263Y0133392D01*
X0094326Y0133430D01*
X0094388Y0133473D01*
X0094447Y0133518D01*
X0094504Y0133566D01*
X0094558Y0133617D01*
X0094609Y0133671D01*
X0094657Y0133728D01*
X0094702Y0133787D01*
X0094745Y0133849D01*
X0094783Y0133912D01*
X0094819Y0133977D01*
X0094851Y0134045D01*
X0094880Y0134113D01*
X0094904Y0134184D01*
X0094926Y0134255D01*
X0094943Y0134327D01*
X0094956Y0134401D01*
X0094966Y0134474D01*
X0094972Y0134549D01*
X0094974Y0134623D01*
X0094972Y0134698D01*
X0094966Y0134773D01*
X0094957Y0134847D01*
X0094943Y0134921D01*
X0094926Y0134994D01*
X0094905Y0135066D01*
X0094880Y0135136D01*
X0094851Y0135206D01*
X0094819Y0135273D01*
X0094784Y0135339D01*
X0094745Y0135404D01*
X0094703Y0135466D01*
X0094657Y0135525D01*
X0094609Y0135583D01*
X0094558Y0135637D01*
X0094504Y0135689D01*
X0094447Y0135738D01*
X0094388Y0135784D01*
X0094327Y0135827D01*
X0094263Y0135867D01*
X0115898Y0136934D02*
X0117854Y0135867D01*
X0117143Y0133201D02*
X0117035Y0133203D01*
X0116928Y0133209D01*
X0116820Y0133218D01*
X0116713Y0133232D01*
X0116607Y0133249D01*
X0116501Y0133270D01*
X0116396Y0133295D01*
X0116292Y0133324D01*
X0116189Y0133356D01*
X0116088Y0133392D01*
X0115988Y0133432D01*
X0115889Y0133475D01*
X0115792Y0133522D01*
X0115696Y0133572D01*
X0115603Y0133626D01*
X0115511Y0133683D01*
X0115422Y0133743D01*
X0115335Y0133806D01*
X0115250Y0133873D01*
X0115167Y0133942D01*
X0115087Y0134015D01*
X0115010Y0134090D01*
X0117854Y0135867D02*
X0117918Y0135827D01*
X0117979Y0135784D01*
X0118038Y0135738D01*
X0118095Y0135689D01*
X0118149Y0135637D01*
X0118200Y0135583D01*
X0118248Y0135525D01*
X0118294Y0135466D01*
X0118336Y0135404D01*
X0118375Y0135339D01*
X0118410Y0135273D01*
X0118442Y0135206D01*
X0118471Y0135136D01*
X0118496Y0135066D01*
X0118517Y0134994D01*
X0118534Y0134921D01*
X0118548Y0134847D01*
X0118557Y0134773D01*
X0118563Y0134698D01*
X0118565Y0134623D01*
X0118563Y0134549D01*
X0118557Y0134474D01*
X0118547Y0134401D01*
X0118534Y0134327D01*
X0118517Y0134255D01*
X0118495Y0134184D01*
X0118471Y0134113D01*
X0118442Y0134045D01*
X0118410Y0133977D01*
X0118374Y0133912D01*
X0118336Y0133849D01*
X0118293Y0133787D01*
X0118248Y0133728D01*
X0118200Y0133671D01*
X0118149Y0133617D01*
X0118095Y0133566D01*
X0118038Y0133518D01*
X0117979Y0133473D01*
X0117917Y0133430D01*
X0117854Y0133392D01*
X0117789Y0133356D01*
X0117721Y0133324D01*
X0117653Y0133295D01*
X0117582Y0133271D01*
X0117511Y0133249D01*
X0117439Y0133232D01*
X0117365Y0133219D01*
X0117292Y0133209D01*
X0117217Y0133203D01*
X0117143Y0133201D01*
X0120712Y0133200D02*
X0121068Y0133200D01*
X0121068Y0133556D01*
X0120712Y0133556D01*
X0120712Y0133200D01*
X0123625Y0133200D02*
X0125403Y0133200D01*
X0123625Y0133200D02*
X0123625Y0139600D01*
X0125403Y0139600D01*
X0125403Y0139601D02*
X0125485Y0139599D01*
X0125567Y0139593D01*
X0125649Y0139584D01*
X0125730Y0139571D01*
X0125810Y0139554D01*
X0125890Y0139533D01*
X0125968Y0139509D01*
X0126045Y0139481D01*
X0126121Y0139450D01*
X0126196Y0139415D01*
X0126268Y0139376D01*
X0126339Y0139335D01*
X0126408Y0139290D01*
X0126474Y0139242D01*
X0126539Y0139191D01*
X0126601Y0139137D01*
X0126660Y0139080D01*
X0126717Y0139021D01*
X0126771Y0138959D01*
X0126822Y0138894D01*
X0126870Y0138828D01*
X0126915Y0138759D01*
X0126956Y0138688D01*
X0126995Y0138616D01*
X0127030Y0138541D01*
X0127061Y0138465D01*
X0127089Y0138388D01*
X0127113Y0138310D01*
X0127134Y0138230D01*
X0127151Y0138150D01*
X0127164Y0138069D01*
X0127173Y0137987D01*
X0127179Y0137905D01*
X0127181Y0137823D01*
X0127181Y0134978D01*
X0127179Y0134896D01*
X0127173Y0134814D01*
X0127164Y0134732D01*
X0127151Y0134651D01*
X0127134Y0134571D01*
X0127113Y0134491D01*
X0127089Y0134413D01*
X0127061Y0134336D01*
X0127030Y0134260D01*
X0126995Y0134185D01*
X0126956Y0134113D01*
X0126915Y0134042D01*
X0126870Y0133973D01*
X0126822Y0133907D01*
X0126771Y0133842D01*
X0126717Y0133780D01*
X0126660Y0133721D01*
X0126601Y0133664D01*
X0126539Y0133610D01*
X0126474Y0133559D01*
X0126408Y0133511D01*
X0126339Y0133466D01*
X0126268Y0133425D01*
X0126196Y0133386D01*
X0126121Y0133351D01*
X0126045Y0133320D01*
X0125968Y0133292D01*
X0125890Y0133268D01*
X0125810Y0133247D01*
X0125730Y0133230D01*
X0125649Y0133217D01*
X0125567Y0133208D01*
X0125485Y0133202D01*
X0125403Y0133200D01*
X0130273Y0133200D02*
X0130273Y0139600D01*
X0131695Y0137112D02*
X0133828Y0133200D01*
X0130273Y0135689D02*
X0133828Y0139600D01*
X0115899Y0136934D02*
X0115835Y0136974D01*
X0115774Y0137017D01*
X0115715Y0137063D01*
X0115658Y0137112D01*
X0115604Y0137164D01*
X0115553Y0137218D01*
X0115505Y0137276D01*
X0115459Y0137335D01*
X0115417Y0137397D01*
X0115378Y0137462D01*
X0115343Y0137528D01*
X0115311Y0137595D01*
X0115282Y0137665D01*
X0115257Y0137735D01*
X0115236Y0137807D01*
X0115219Y0137880D01*
X0115205Y0137954D01*
X0115196Y0138028D01*
X0115190Y0138103D01*
X0115188Y0138178D01*
X0115190Y0138252D01*
X0115196Y0138327D01*
X0115206Y0138400D01*
X0115219Y0138474D01*
X0115236Y0138546D01*
X0115258Y0138617D01*
X0115282Y0138688D01*
X0115311Y0138756D01*
X0115343Y0138824D01*
X0115379Y0138889D01*
X0115417Y0138952D01*
X0115460Y0139014D01*
X0115505Y0139073D01*
X0115553Y0139130D01*
X0115604Y0139184D01*
X0115659Y0139235D01*
X0115715Y0139283D01*
X0115774Y0139328D01*
X0115836Y0139371D01*
X0115899Y0139409D01*
X0115964Y0139445D01*
X0116032Y0139477D01*
X0116100Y0139506D01*
X0116171Y0139530D01*
X0116242Y0139552D01*
X0116314Y0139569D01*
X0116388Y0139582D01*
X0116461Y0139592D01*
X0116536Y0139598D01*
X0116610Y0139600D01*
X0116610Y0139601D02*
X0116711Y0139599D01*
X0116812Y0139593D01*
X0116912Y0139584D01*
X0117012Y0139570D01*
X0117112Y0139553D01*
X0117211Y0139533D01*
X0117308Y0139508D01*
X0117405Y0139480D01*
X0117501Y0139448D01*
X0117596Y0139412D01*
X0117689Y0139373D01*
X0117780Y0139331D01*
X0117870Y0139285D01*
X0117958Y0139235D01*
X0118044Y0139183D01*
X0118128Y0139127D01*
X0118210Y0139068D01*
X0051186Y0148189D02*
X0046919Y0148189D01*
X0049052Y0146056D02*
X0049052Y0150323D01*
D11*
X0012111Y0013204D03*
X0029111Y0013204D03*
X0029111Y0045715D03*
X0012111Y0045715D03*
X0012111Y0115566D03*
X0029111Y0115566D03*
X0029111Y0148078D03*
X0012111Y0148078D03*
X0147544Y0148078D03*
X0164544Y0148078D03*
X0164544Y0115566D03*
X0147544Y0115566D03*
X0147544Y0045715D03*
X0164544Y0045715D03*
X0164544Y0013204D03*
X0147544Y0013204D03*
D12*
X0128918Y0015837D03*
X0118918Y0015837D03*
X0059351Y0015680D03*
X0049351Y0015680D03*
X0036619Y0020900D03*
X0036619Y0030900D03*
X0036619Y0040900D03*
X0038430Y0140404D03*
X0038430Y0150404D03*
X0019816Y0151514D03*
X0012745Y0158586D03*
X0129666Y0150326D03*
X0139666Y0150326D03*
D13*
X0075966Y0122400D03*
X0069273Y0122400D03*
X0060966Y0122400D03*
X0054273Y0122400D03*
X0053773Y0137900D03*
X0060466Y0137900D03*
X0047966Y0104400D03*
X0041273Y0104400D03*
X0041273Y0068400D03*
X0047966Y0068400D03*
X0051273Y0027400D03*
X0057966Y0027400D03*
D14*
X0056438Y0075129D03*
X0056438Y0089696D03*
X0032029Y0089696D03*
X0032029Y0075129D03*
X0120414Y0075129D03*
X0120414Y0089696D03*
X0144824Y0089696D03*
X0144824Y0075129D03*
D15*
X0113328Y0079609D02*
X0113328Y0085609D01*
X0103328Y0085609D02*
X0103328Y0079609D01*
X0093328Y0079609D02*
X0093328Y0085609D01*
X0083328Y0085609D02*
X0083328Y0079609D01*
X0073328Y0079609D02*
X0073328Y0085609D01*
X0063328Y0085609D02*
X0063328Y0079609D01*
D16*
X0063328Y0082609D02*
X0056729Y0082609D01*
X0056438Y0082900D01*
X0056438Y0089696D01*
X0056438Y0095928D01*
X0050792Y0101574D01*
X0047119Y0097900D01*
X0050792Y0101574D02*
X0047966Y0104400D01*
X0051042Y0108569D02*
X0044889Y0108569D01*
X0043600Y0107280D01*
X0043600Y0106728D01*
X0041273Y0104400D01*
X0041273Y0068400D01*
X0036619Y0072400D02*
X0036619Y0092400D01*
X0036619Y0108058D01*
X0029111Y0115566D01*
X0029111Y0148078D01*
X0038430Y0131900D02*
X0053619Y0131900D01*
X0054273Y0131747D01*
X0054273Y0122400D01*
X0060966Y0122400D02*
X0060966Y0116554D01*
X0061119Y0116400D01*
X0069119Y0115247D02*
X0069273Y0122400D01*
X0069273Y0126247D01*
X0067619Y0127900D01*
X0071245Y0131900D02*
X0053619Y0131900D01*
X0053773Y0137900D02*
X0047119Y0137900D01*
X0060466Y0137900D02*
X0067119Y0137900D01*
X0071245Y0131900D02*
X0075545Y0134700D01*
X0079193Y0134700D01*
X0087419Y0126474D01*
X0087433Y0126474D01*
X0087619Y0126288D01*
X0103507Y0126400D01*
X0106619Y0126400D01*
X0146044Y0126400D01*
X0147544Y0124900D01*
X0147544Y0148078D01*
X0139666Y0150326D02*
X0129666Y0150326D01*
X0147544Y0124900D02*
X0147544Y0115566D01*
X0158879Y0107400D02*
X0116619Y0107400D01*
X0115119Y0108900D01*
X0112619Y0102900D02*
X0107982Y0107164D01*
X0106419Y0108600D01*
X0106419Y0126200D01*
X0106619Y0126400D01*
X0103507Y0126400D02*
X0087502Y0126405D01*
X0087419Y0126474D02*
X0087419Y0126226D01*
X0076119Y0127900D02*
X0076119Y0128400D01*
X0076119Y0127900D02*
X0075966Y0127747D01*
X0075966Y0122400D01*
X0069119Y0115247D02*
X0069119Y0109400D01*
X0053119Y0110646D02*
X0053119Y0111400D01*
X0053119Y0110646D02*
X0051042Y0108569D01*
X0068528Y0091083D01*
X0068528Y0087409D01*
X0073328Y0082609D01*
X0083328Y0082609D02*
X0083028Y0066309D01*
X0078528Y0062955D01*
X0054973Y0062900D01*
X0047966Y0068400D01*
X0056438Y0069581D02*
X0058119Y0067900D01*
X0056438Y0069581D02*
X0056438Y0075129D01*
X0036619Y0072400D02*
X0035673Y0071454D01*
X0035673Y0059347D01*
X0041619Y0053400D01*
X0064119Y0053400D01*
X0069119Y0048400D01*
X0061119Y0033400D02*
X0055619Y0033400D01*
X0051273Y0029054D01*
X0051273Y0027400D01*
X0040119Y0027400D01*
X0036619Y0030900D01*
X0036619Y0040900D02*
X0036119Y0041400D01*
X0036119Y0050400D01*
X0027746Y0058773D01*
X0025169Y0058773D01*
X0012111Y0045715D01*
X0012111Y0013204D01*
X0029111Y0013204D02*
X0029111Y0045715D01*
X0030011Y0044815D01*
X0030011Y0019164D01*
X0039775Y0009400D01*
X0070619Y0009400D01*
X0058119Y0022400D02*
X0057966Y0022554D01*
X0057966Y0027400D01*
X0062619Y0027400D01*
X0058119Y0022400D02*
X0057299Y0021580D01*
X0046908Y0021580D01*
X0046228Y0020900D01*
X0036619Y0020900D01*
X0027746Y0058773D02*
X0030619Y0061647D01*
X0030619Y0073719D01*
X0032029Y0075129D01*
X0032029Y0089696D02*
X0032029Y0095991D01*
X0030119Y0097900D01*
X0025189Y0103970D02*
X0012111Y0112548D01*
X0012111Y0115566D01*
X0012111Y0148078D01*
X0012111Y0157952D01*
X0012745Y0158586D01*
X0112619Y0102900D02*
X0112619Y0089900D01*
X0112619Y0083318D01*
X0113328Y0082609D01*
X0113141Y0082422D01*
X0113141Y0080119D01*
X0112619Y0080641D01*
X0113141Y0080119D02*
X0113141Y0074900D01*
X0113370Y0075129D01*
X0120414Y0075129D01*
X0144824Y0075129D01*
X0153119Y0062900D02*
X0153619Y0062900D01*
X0155119Y0061400D01*
X0155119Y0055141D01*
X0164544Y0045715D01*
X0164544Y0013204D01*
X0147544Y0013204D02*
X0147544Y0045715D01*
X0147455Y0034804D01*
X0113078Y0034804D01*
X0113141Y0049242D01*
X0113141Y0074900D01*
X0122619Y0082400D02*
X0123119Y0082400D01*
X0120414Y0085105D01*
X0120414Y0089696D01*
X0144824Y0089696D01*
X0158879Y0107400D02*
X0164544Y0115566D01*
X0164544Y0148078D01*
X0112619Y0089900D02*
X0112824Y0089696D01*
X0118918Y0015837D02*
X0128918Y0015837D01*
D17*
X0153119Y0062900D03*
X0122619Y0082400D03*
X0115119Y0108900D03*
X0076119Y0128400D03*
X0067619Y0127900D03*
X0067119Y0137900D03*
X0047119Y0137900D03*
X0038430Y0131900D03*
X0053119Y0111400D03*
X0061119Y0116400D03*
X0069119Y0109400D03*
X0047119Y0097900D03*
X0030119Y0097900D03*
X0025189Y0103970D03*
X0058119Y0067900D03*
X0069119Y0048400D03*
X0061119Y0033400D03*
X0062619Y0027400D03*
X0070619Y0009400D03*
M02*
