%
M48
M72
T01C0.01378
T02C0.03200
T03C0.03937
T04C0.04000
%
T01
X62619Y27400
X61119Y33400
X69119Y48400
X58119Y67900
X47119Y97900
X53119Y111400
X61119Y116400
X69119Y109400
X67619Y127900
X76119Y128400
X67119Y137900
X47119Y137900
X38430Y131900
X25189Y103970
X30119Y97900
X115119Y108900
X122619Y82400
X153119Y62900
X70619Y9400
T02
X36619Y20900
X36619Y30900
X36619Y40900
X19816Y151514
X12745Y158586
T03
X88328Y160168
X88328Y110168
X88328Y53081
X88328Y5050
T04
X59351Y15680
X49351Y15680
X63328Y82609
X73328Y82609
X83328Y82609
X93328Y82609
X103328Y82609
X113328Y82609
X118918Y15837
X128918Y15837
X38430Y140404
X38430Y150404
X129666Y150326
X139666Y150326
M30
